<svg aria-hidden="true" focusable="false" role="presentation" class="icon icon-user" viewBox="0 0 64 64"> <path d="M35 39.84v-2.53c3.3-1.91 6-6.66 6-11.41 0-7.63 0-13.82-9-13.82s-9 6.19-9 13.82c0 4.75 2.7 9.51 6 11.41v2.53c-10.18.85-18 6-18 12.16h42c0-6.19-7.82-11.31-18-12.16z"></path></svg>

<svg aria-hidden="true" focusable="false" role="presentation" class="icon icon-search" viewBox="0 0 64 64"> <path d="M47.16 28.58A18.58 18.58 0 1 1 28.58 10a18.58 18.58 0 0 1 18.58 18.58zM54 54L41.94 42"></path></svg>



<svg aria-hidden="true" focusable="false" role="presentation" class="icon icon-bag" viewBox="0 0 64 64"> <g fill="none" stroke="#000" stroke-width="2"><path d="M25 26c0-15.79 3.57-20 8-20s8 4.21 8 20"></path><path d="M14.74 18h36.51l3.59 36.73h-43.7z"></path></g></svg>


<!-- insta --><svg xmlns="http://www.w3.org/2000/svg" width="30px" height="30px" viewBox="0 0 24 24" fill="none"> <path d="M9 22H15C20 22 22 20 22 15V9C22 4 20 2 15 2H9C4 2 2 4 2 9V15C2 20 4 22 9 22Z" stroke="#fff" stroke-width="1.5" stroke-linecap="round" stroke-linejoin="round"></path> <path d="M12 15.5C13.933 15.5 15.5 13.933 15.5 12C15.5 10.067 13.933 8.5 12 8.5C10.067 8.5 8.5 10.067 8.5 12C8.5 13.933 10.067 15.5 12 15.5Z" stroke="#fff" stroke-width="1.5" stroke-linecap="round" stroke-linejoin="round"></path> <path d="M17.6361 7H17.6477" stroke="#292D32" stroke-width="2" stroke-linecap="round" stroke-linejoin="round"></path></svg>

<!-- facebook --><svg xmlns="http://www.w3.org/2000/svg" fill="#ffff" stroke="#fff" width="30px" height="30px" viewBox="0 0 1920 1920"> <path stroke="#fff" d="m1416.013 791.915-30.91 225.617h-371.252v789.66H788.234v-789.66H449.808V791.915h338.426V585.137c0-286.871 176.207-472.329 449.09-472.329 116.87 0 189.744 6.205 231.822 11.845l-3.272 213.66-173.5.338c-4.737-.451-117.771-9.25-199.332 65.655-52.568 48.169-79.191 117.433-79.191 205.65v181.96h402.162Zm-247.276-304.018c44.446-41.401 113.71-36.889 118.787-36.663l289.467-.113 6.204-417.504-43.544-10.717C1511.675 16.02 1426.053 0 1237.324 0 901.268 0 675.425 235.206 675.425 585.137v93.97H337v451.234h338.425V1920h451.234v-789.66h356.7l61.932-451.233H1126.66v-69.152c0-54.937 14.214-96 42.078-122.058Z" fill-rule="evenodd"></path></svg>

<!-- tiktok --><svg xmlns="http://www.w3.org/2000/svg" width="30px" height="30px" viewBox="0 0 24 24" fill="none" stroke="#ffffff" style="
"> <g id="SVGRepo_bgCarrier" stroke-width="0"></g> <g id="SVGRepo_tracerCarrier" stroke-linecap="round" stroke-linejoin="round"></g> <g id="SVGRepo_iconCarrier"> <path d="M16.8217 5.1344C16.0886 4.29394 15.6479 3.19805 15.6479 2H14.7293M16.8217 5.1344C17.4898 5.90063 18.3944 6.45788 19.4245 6.67608C19.7446 6.74574 20.0786 6.78293 20.4266 6.78293V10.2191C18.645 10.2191 16.9932 9.64801 15.6477 8.68211V15.6707C15.6477 19.1627 12.8082 22 9.32386 22C7.50043 22 5.85334 21.2198 4.69806 19.98C3.64486 18.847 2.99994 17.3331 2.99994 15.6707C2.99994 12.2298 5.75592 9.42509 9.17073 9.35079M16.8217 5.1344C16.8039 5.12276 16.7861 5.11101 16.7684 5.09914M6.9855 17.3517C6.64217 16.8781 6.43802 16.2977 6.43802 15.6661C6.43802 14.0734 7.73249 12.7778 9.32394 12.7778C9.62087 12.7778 9.9085 12.8288 10.1776 12.9124V9.40192C9.89921 9.36473 9.61622 9.34149 9.32394 9.34149C9.27287 9.34149 8.86177 9.36884 8.81073 9.36884M14.7244 2H12.2097L12.2051 15.7775C12.1494 17.3192 10.8781 18.5591 9.32386 18.5591C8.35878 18.5591 7.50971 18.0808 6.98079 17.3564" stroke="#ffffff" stroke-linejoin="round"></path></g></svg>

<!-- papa -->
<path d="M-143,273c-70.7,0-128,57.3-128,128c0,52.4,31.5,97.4,76.6,117.2c-0.4-8.9-0.1-19.7,2.2-29.4c2.5-10.4,16.5-69.7,16.5-69.7 s-4.1-8.2-4.1-20.2c0-19,11-33.1,24.7-33.1c11.6,0,17.3,8.7,17.3,19.2c0,11.7-7.5,29.2-11.3,45.4c-3.2,13.6,6.8,24.6,20.2,24.6 c24.3,0,40.6-31.1,40.6-68c0-28-18.9-49-53.3-49c-38.8,0-63,28.9-63,61.3c0,11.2,3.3,19,8.4,25.1c2.4,2.8,2.7,3.9,1.8,7.1 c-0.6,2.3-2,8-2.6,10.3c-0.9,3.2-3.5,4.4-6.4,3.2c-17.9-7.3-26.2-26.9-26.2-48.9c0-36.4,30.7-80,91.5-80c48.9,0,81,35.4,81,73.3 c0,50.2-27.9,87.7-69.1,87.7c-13.8,0-26.8-7.5-31.3-15.9c0,0-7.4,29.5-9,35.2c-2.7,9.9-8,19.7-12.9,27.4c11.5,3.4,23.7,5.3,36.3,5.3 c70.7,0,128-57.3,128-128C-15,330.3-72.3,273-143,273z"></path>


<!-- arrow -->
<svg width="24" height="24" viewBox="0 0 24 24" xmlns="http://www.w3.org/2000/svg" xmlns:xlink="http://www.w3.org/1999/xlink" focusable="false" role="presentation"><defs><path id="nds-Icon255a" d="M9.06 12.5l7.47-7.47-1.06-1.06-8.53 8.53 8.53 8.53 1.06-1.06z"></path></defs><use transform="scale(1 -1) rotate(90 24.235 0)" xlink:href="#nds-Icon255a"></use></svg>